Coordinates
version=1
nRows=17
nColumns=24
inDegrees=yes

Units are S.I. units (second, meters, Newtons, ...)
Angles are in degrees.

endheader
time	pelvis_tilt	pelvis_list	pelvis_rotation	pelvis_tx	pelvis_ty	pelvis_tz	hip_flexion_r	hip_adduction_r	hip_rotation_r	knee_angle_r	ankle_angle_r	subtalar_angle_r	mtp_angle_r	hip_flexion_l	hip_adduction_l	hip_rotation_l	knee_angle_l	ankle_angle_l	subtalar_angle_l	mtp_angle_l	lumbar_extension	lumbar_bending	lumbar_rotation
      1.88300000000000000711	      7.60486234887354228817	      1.83265930574997426561	      1.86742842752853932531	      0.58728942949808116136	      1.00730886529619834135	     -0.00189607179444339197	     16.34134504494174677802	     -2.95750316214684305649	     -4.40699782410057405713	     -5.29241157758952596168	     -0.62070725829922557271	      0.00000092805545225049	      0.00000000000000000000	    -26.53961521923949007373	      3.45391771561143823277	      5.77105527596879053220	     -7.04918927543721629547	     14.36537997789380050051	      0.00000632359068958606	      0.00000000000000000000	    -23.48772668109724293117	     -0.40109323521392498124	     -8.97025421977948589358
      1.89999999999999991118	      7.36948078693183106225	      1.60919993352846102397	      2.16701516898933821409	      0.59060276992199711721	      1.00692812808102316602	      0.00010210232222644397	     16.92337442568647887242	     -2.62176693635955748718	     -4.66677604592384742688	     -8.16734495672292304391	     -1.80825494234602013321	      0.00000074582082383545	      0.00000000000000000000	    -26.41934741009580278615	      2.95806399481891846293	      5.89098559010921007939	     -9.34348651652990014327	     14.09441675025967555257	      0.00000716516273059491	      0.00000000000000000000	    -22.92369816741219423761	      0.20685709298395399403	     -8.91797649937465308767
      1.91700000000000003730	      7.48532746206219190555	      1.39217491991617725589	      2.51087222249066766011	      0.59393166997609692093	      1.00779978559057781240	      0.00199368018862034835	     17.16922249749026363475	     -2.36675459286797007508	     -4.98970143246096409229	    -11.30515006843877223730	     -2.55380253270830115397	      0.00000068444626520625	      0.00000000000000000000	    -26.28743275806191093125	      2.46425560904641116622	      6.02264456227319033843	    -12.27194075262992178921	     13.50125070018487605239	      0.00000831766226313622	      0.00000000000000000000	    -22.79315253384097772482	      0.90882247940533011921	     -9.05828863711906429046
      1.93300000000000005151	      7.53370320048178676586	      1.22324356086384966602	      2.66435228564728809886	      0.59817501357989055766	      1.00912176369096862061	      0.00388436166505576807	     17.34453860763991173144	     -2.16050601286739807350	     -4.98519935427992777477	    -14.36183639623537189323	     -2.77021583054114506339	      0.00000059926284009354	      0.00000000000000000000	    -25.64401584031589464985	      2.15550958409539550331	      5.90222818366251100741	    -16.01894825962587631807	     12.50861779850093569166	      0.00000977487808850323	      0.00000000000000000000	    -22.44652334879890176467	      1.44806285035008985851	     -8.79757116822809237533
      1.94999999999999995559	      7.83930409148696138999	      1.00223783594454940449	      3.06666476741882210177	      0.60195534135915429452	      1.01119629724163950790	      0.00564513274341915759	     16.97346531780374334630	     -1.94595942972993296571	     -5.15544427659201787151	    -16.98401725094488412537	     -2.67996300870330683708	      0.00000047655111612699	      0.00000000000000000000	    -24.48262957705885867199	      1.70265581327904835796	      5.76306645495385794220	    -21.04898349452415118321	     11.14300220624407877779	      0.00001166222867648504	      0.00000000000000000000	    -22.50365490890749597952	      2.15926929506668940917	     -8.91630201374759678856
      1.96700000000000008171	      7.82246225229416758395	      1.16242270841051142938	      3.42648086378007565855	      0.60446060785494615253	      1.01282860421913811777	      0.00756781575039346642	     16.78684108896775128983	     -2.12253545251001485283	     -5.26353782059298058726	    -19.24809743398091299582	     -2.30399477666158203348	      0.00000066194623192118	      0.00000000000000000000	    -22.03357004361737025988	      1.64098984786538792946	      5.25811697332562211216	    -27.47431000496366237940	      9.00731584958226605409	      0.00001425914212413409	      0.00000000000000000000	    -22.31656627852134278100	      2.35564827564768508594	     -8.96681785688642207788
      1.98300000000000009592	      7.77549199458037954003	      0.98375851189653884532	      3.70091329107104805018	      0.60683296480512072257	      1.01441262052341363287	      0.00987077491847708315	     16.31798219889843792885	     -1.88344909844698804591	     -5.48607712830162874695	    -20.88023929445166260166	     -1.69952091177639563746	      0.00000097819880321330	      0.00000000000000000000	    -18.96438688752586543274	      1.09908355881028896306	      4.02017126279349312767	    -34.49874739414286750616	      5.73665279313886866674	      0.00001694690209114826	      0.00000000000000000000	    -22.16677437395829386446	      2.79441073635305947676	     -8.94815793711705431690
      2.00000000000000000000	      7.57733309775489072280	      0.78675680378516943403	      3.80378836174885304189	      0.60833136451770786213	      1.01570994153634264201	      0.01244117246539789938	     15.90982743799357024272	     -1.54453282470916120062	     -5.61662227422618975936	    -22.23085605398459918547	     -0.74535836997244286906	      0.00000120205801908622	      0.00000000000000000000	    -15.30949097353006926880	      0.31629721722411774376	      2.16617810329238391631	    -41.58397807202047147257	      1.26457607373389047112	      0.00001899873855179023	      0.00000000000000000000	    -21.79627510695601699808	      3.12475411172160466577	     -8.67023079256632200895
      2.01699999999999990408	      7.24592543453692439215	      0.18621918645950752413	      3.75375085123028018330	      0.60875647007215549777	      1.01678794773992975387	      0.01570232947046334981	     15.37609312003093364751	     -0.67982797711670495122	     -5.76511466801219985001	    -22.83611880758404666381	      0.20682421076322707321	      0.00000130893106408749	      0.00000000000000000000	    -11.25863107687716535565	     -1.23742411980561239915	     -0.18229502606951794585	    -48.36275082833768834689	     -3.69510922776400940748	      0.00002013872687937824	      0.00000000000000000000	    -21.44445524952882919933	      3.78666359787992901076	     -7.90751995654425421378
      2.03299999999999991829	      7.02786214029726519215	     -0.54333277548277236768	      4.03336722632659672172	      0.60954524228640161176	      1.01857843855148133549	      0.01905624334735159589	     14.34522003762453401521	      0.33714955216822878326	     -6.23122250362873675300	    -22.79223379991173104031	      1.23543811932586433677	      0.00000132453582947059	      0.00000000000000000000	     -7.49871825642649447730	     -3.30463778351882853102	     -2.12153446280091806386	    -54.16221018484650784330	     -8.13596963083832314112	      0.00001986755034157289	      0.00000000000000000000	    -21.01299041921474497485	      4.47036376877822672071	     -7.50431027067395106656
      2.04999999999999982236	      6.95311318976471426367	     -1.21339894010664361979	      3.94109673737234977864	      0.60931078301260732655	      1.02090199128487135738	      0.02267347576991686139	     13.03860934277446581575	      1.40442669321065549681	     -6.33761506610458891231	    -22.30380016983574620326	      2.10666269162523933645	      0.00000132443589036043	      0.00000000000000000000	     -4.11071140341641516613	     -5.19936947489041223491	     -3.81706489001370963265	    -59.10691958257882561156	    -10.73896760899341273898	      0.00001829925644399741	      0.00000000000000000000	    -20.95766189945455693078	      4.97332889242156106491	     -6.65806527535661807349
      2.06700000000000017053	      7.12486097799921314078	     -1.70372826949628541904	      3.97251651523007698330	      0.60899025883762336608	      1.02391305798374232516	      0.02611900021963362017	     11.38977867996455017874	      2.29617979578382858108	     -6.38383743337600151335	    -21.69318267032749858458	      2.97178135313877778145	      0.00000123175767155009	      0.00000000000000000000	     -1.10408273700213310775	     -6.69666600627856478667	     -4.70229816048606963363	    -63.36567861160440173762	    -11.08263595752532282290	      0.00001644452994502419	      0.00000000000000000000	    -21.10952998419706716504	      5.20262277148487495282	     -6.03977413347930891518
      2.08300000000000018474	      7.09788843295097571229	     -1.86336593611999012943	      3.73921643812176496269	      0.60819421179808808020	      1.02715160636107927239	      0.02897795104270668720	      9.78989942344714947353	      2.80400309819058835004	     -6.11368939221332308165	    -20.71499132495508277430	      3.60449895696140387713	      0.00000134988980384592	      0.00000000000000000000	      1.86158915106719868859	     -7.43262689945255683455	     -5.32311149229584490428	    -66.72409055766692631551	     -9.56959922070677038164	      0.00001449252460331002	      0.00000000000000000000	    -21.19750306642131931767	      5.09478840138034350105	     -5.11337314041223756078
      2.10000000000000008882	      7.14228533769483675542	     -1.92225663053055950691	      3.52886395350294623796	      0.60782355942578181196	      1.03071061141632380753	      0.03174003061300347678	      7.94064033062229057691	      3.20018806773597885851	     -5.81333901724166768332	    -19.46180453883290084605	      4.08619322626242720276	      0.00000143212880309198	      0.00000000000000000000	      4.55146229899258614182	     -7.73827155608956473998	     -5.48976799580514640553	    -69.15625594722197888586	     -7.21172605686011536363	      0.00001301000382050392	      0.00000000000000000000	    -21.25702745359924605850	      4.81751080416089738634	     -4.46378541968268738316
      2.11699999999999999289	      7.37349462669742816701	     -1.81440962274801043108	      3.08577002741653938500	      0.60686078467742954334	      1.03456703674150962691	      0.03473366756056848331	      5.70485684174167850813	      3.44634011770582304734	     -5.23382314792771996537	    -17.73529959410338818770	      4.27877649714573582429	      0.00000147712687633562	      0.00000000000000000000	      6.84319823155135242843	     -7.77427595791445913420	     -5.84695954122271022158	    -70.61487354144900052688	     -5.05841682737680553572	      0.00001229002395009628	      0.00000000000000000000	    -21.45463264115566559553	      4.28959174525654329813	     -3.43960509842175854445
      2.13300000000000000711	      7.37038214914653355692	     -1.68598592079155640278	      2.71369893237161807775	      0.60565711881644013204	      1.03766013663311817972	      0.03730125737797158197	      3.79762453986318648802	      3.58864929508817631643	     -4.72294788857269143278	    -16.14555301983833501822	      4.49239271526058736583	      0.00000156292067850374	      0.00000000000000000000	      9.27020229773052584221	     -7.49518477293397822336	     -5.82944897038100684483	    -71.24942835946025354588	     -3.33982989297131949158	      0.00001194808863366135	      0.00000000000000000000	    -21.55956107389386389173	      3.75904886155488116017	     -2.75091741067267747667
      2.14999999999999991118	      7.32379339702349074770	     -1.53825504319299533051	      2.29216050570418383714	      0.60446944252891154914	      1.04024262056148208977	      0.03950762247587710774	      1.95340957196433939735	      3.66053345615113956413	     -4.13972378619135206179	    -14.57595942606499939131	      4.70297317243431756140	      0.00000152641032556862	      0.00000000000000000000	     11.52702997662325223871	     -7.08020662305067460807	     -5.82128899518298403848	    -71.03269180227785284387	     -2.13941980665441899845	      0.00001197663991269041	      0.00000000000000000000	    -21.46102675016761907045	      3.25584767983314149475	     -2.12897647784054377951
